<?xml version="1.0" encoding="UTF-8"?>
<!-- Created with Inkscape (http://www.inkscape.org/) -->
<svg width="95.524mm" height="31.02mm" version="1.1" viewBox="0 0 95.523751 31.019791" xmlns="http://www.w3.org/2000/svg" xmlns:cc="http://creativecommons.org/ns#" xmlns:dc="http://purl.org/dc/elements/1.1/" xmlns:rdf="http://www.w3.org/1999/02/22-rdf-syntax-ns#">
 <defs>
  <marker id="marker11075" overflow="visible" orient="auto">
   <path transform="matrix(-.4 0 0 -.4 -4 0)" d="m0 0 5-5-17.5 5 17.5 5z" fill-rule="evenodd" stroke="#000" stroke-width="1pt"/>
  </marker>
  <marker id="marker10801" overflow="visible" orient="auto">
   <path transform="matrix(-.4 0 0 -.4 -4 0)" d="m0 0 5-5-17.5 5 17.5 5z" fill-rule="evenodd" stroke="#000" stroke-width="1pt"/>
  </marker>
  <marker id="marker9992" overflow="visible" orient="auto">
   <path transform="matrix(-.4 0 0 -.4 -4 0)" d="m0 0 5-5-17.5 5 17.5 5z" fill-rule="evenodd" stroke="#000" stroke-width="1pt"/>
  </marker>
  <marker id="marker4108" overflow="visible" orient="auto">
   <path transform="matrix(-.4 0 0 -.4 -4 0)" d="m0 0 5-5-17.5 5 17.5 5z" fill-rule="evenodd" stroke="#000" stroke-width="1pt"/>
  </marker>
  <marker id="marker3310" overflow="visible" orient="auto">
   <path transform="matrix(-.4 0 0 -.4 -4 0)" d="m0 0 5-5-17.5 5 17.5 5z" fill-rule="evenodd" stroke="#000" stroke-width="1pt"/>
  </marker>
  <marker id="marker6297" overflow="visible" orient="auto">
   <path transform="matrix(-.4 0 0 -.4 -4 0)" d="m0 0 5-5-17.5 5 17.5 5z" fill-rule="evenodd" stroke="#000" stroke-width="1pt"/>
  </marker>
 </defs>
 <metadata>
  <rdf:RDF>
   <cc:Work rdf:about="">
    <dc:format>image/svg+xml</dc:format>
    <dc:type rdf:resource="http://purl.org/dc/dcmitype/StillImage"/>
    <dc:title/>
   </cc:Work>
  </rdf:RDF>
 </metadata>
 <g transform="translate(-93.508 -91.006)">
  <path d="m109 101.37h10.06" fill="none" marker-end="url(#marker6297)" stroke="#000" stroke-width=".265"/>
  <g>
   <text x="109.42836" y="98.481392" fill="#000000" font-family="Calibri" font-size="2.1167px" letter-spacing="0px" stroke-width=".26458px" word-spacing="0px" style="line-height:94.99999881%" xml:space="preserve"><tspan x="109.42836" y="98.481392">Entra a</tspan><tspan x="109.42836" y="100.49223">memoria</tspan></text>
   <ellipse cx="101.33" cy="101.37" rx="7.67" ry="3.2871" fill="#ff7f50" stroke="#a0522d" stroke-linejoin="round" stroke-width=".3"/>
   <text x="98.626877" y="102.25419" fill="#8b4513" font-family="Calibri" font-size="2.8222px" letter-spacing="0px" stroke-width=".26458px" word-spacing="0px" style="line-height:125%" xml:space="preserve"><tspan x="98.626877" y="102.25419" fill="#8b4513" font-family="Calibri" stroke-width=".26458px">New</tspan></text>
   <ellipse cx="126.73" cy="101.37" rx="7.67" ry="3.2871" fill="#ff7f50" stroke="#a0522d" stroke-linejoin="round" stroke-width=".3"/>
   <text x="123.13391" y="102.07986" fill="#8b4513" font-family="Calibri" font-size="2.8222px" letter-spacing="0px" stroke-width=".26458px" word-spacing="0px" style="line-height:125%" xml:space="preserve"><tspan x="123.13391" y="102.07986" fill="#8b4513" font-family="Calibri" stroke-width=".26458px">Ready</tspan></text>
   <ellipse cx="154.77" cy="101.37" rx="7.67" ry="3.2871" fill="#ff7f50" stroke="#a0522d" stroke-linejoin="round" stroke-width=".3"/>
   <text x="149.97455" y="102.03645" fill="#8b4513" font-family="Calibri" font-size="2.8222px" letter-spacing="0px" stroke-width=".26458px" word-spacing="0px" style="line-height:125%" xml:space="preserve"><tspan x="149.97455" y="102.03645" fill="#8b4513" font-family="Calibri" stroke-width=".26458px">Running</tspan></text>
   <ellipse cx="180.7" cy="101.37" rx="7.67" ry="3.2871" fill="#ff7f50" stroke="#a0522d" stroke-linejoin="round" stroke-width=".3"/>
   <text x="175.91254" y="102.32033" fill="#8b4513" font-family="Calibri" font-size="2.8222px" letter-spacing="0px" stroke-width=".26458px" word-spacing="0px" style="line-height:125%" xml:space="preserve"><tspan x="175.91254" y="102.32033" fill="#8b4513" font-family="Calibri" stroke-width=".26458px">Finished</tspan></text>
   <ellipse cx="139.96" cy="116.71" rx="7.67" ry="3.2871" fill="#ff7f50" stroke="#a0522d" stroke-linejoin="round" stroke-width=".3"/>
   <text x="135.56195" y="117.37646" fill="#8b4513" font-family="Calibri" font-size="2.8222px" letter-spacing="0px" stroke-width=".26458px" word-spacing="0px" style="line-height:125%" xml:space="preserve"><tspan x="135.56195" y="117.37646" fill="#8b4513" font-family="Calibri" stroke-width=".26458px">Waiting</tspan></text>
  </g>
  <path d="m134.4 101.37h12.706" fill="none" marker-end="url(#marker3310)" stroke="#000" stroke-width=".265"/>
  <path d="m162.44 101.37h10.589" fill="none" marker-end="url(#marker4108)" stroke="#000" stroke-width=".265"/>
  <g fill="#000000" letter-spacing="0px" stroke-width=".26458px" word-spacing="0px">
   <g font-family="Calibri">
    <g font-size="2.1167px">
     <text x="151.99084" y="92.454964" text-anchor="middle" style="line-height:94.99999881%" xml:space="preserve"><tspan x="151.99084" y="92.454964" text-align="center">Interrupción</tspan><tspan x="151.99084" y="94.465797" text-align="center">(timer)</tspan></text>
     <text x="140.07495" y="103.68604" text-anchor="middle" style="line-height:94.99999881%" xml:space="preserve"><tspan x="140.31473" y="103.68604" text-align="center">Elegido para </tspan><tspan x="140.07495" y="105.69688" text-align="center">ejecutar (scheduler)</tspan></text>
     <text x="139.93799" y="112.58872" style="line-height:94.99999881%" xml:space="preserve"><tspan x="139.93799" y="112.58872" font-family="Calibri" stroke-width=".26458px" text-align="center" text-anchor="middle">Esperando evento</tspan></text>
     <text x="140.3468" y="121.64851" style="line-height:94.99999881%" xml:space="preserve"><tspan x="140.3468" y="121.64851" font-family="Calibri" stroke-width=".26458px" text-align="center" text-anchor="middle">(blocked, sleeping, etc)</tspan></text>
     <g>
      <text x="164.78041" y="111.78256" text-anchor="middle" style="font-feature-settings:normal;font-variant-caps:normal;font-variant-ligatures:normal;font-variant-numeric:normal;line-height:94.99999881%" xml:space="preserve"><tspan x="164.78041" y="111.78256" text-align="center">Espera por evento</tspan><tspan x="164.78041" y="113.7934" text-align="center">(ej: I/O)</tspan></text>
      <text x="121.86655" y="110.95348" text-anchor="middle" style="font-feature-settings:normal;font-variant-caps:normal;font-variant-ligatures:normal;font-variant-numeric:normal;line-height:94.99999881%" xml:space="preserve"><tspan x="121.86655" y="110.95348" text-align="center">Evento</tspan><tspan x="121.86655" y="112.96432" text-align="center">cumplido</tspan></text>
      <text x="163.25885" y="100.52875" style="font-feature-settings:normal;font-variant-caps:normal;font-variant-ligatures:normal;font-variant-numeric:normal;line-height:94.99999881%" xml:space="preserve"><tspan x="163.25885" y="100.52875">Término</tspan></text>
      <text x="172.66154" y="106.66095" style="font-feature-settings:normal;font-variant-caps:normal;font-variant-ligatures:normal;font-variant-numeric:normal;line-height:94.99999881%" xml:space="preserve"><tspan x="172.66154" y="106.66095">(terminated, killed)</tspan></text>
     </g>
    </g>
    <text x="162.86443" y="103.63731" font-size="1.9403px" style="font-feature-settings:normal;font-variant-caps:normal;font-variant-ligatures:normal;font-variant-numeric:normal;line-height:94.99999881%" xml:space="preserve"><tspan x="162.86443" y="103.63731"><tspan font-family="Consolas">exit</tspan>, <tspan font-family="Consolas">kill</tspan></tspan></text>
   </g>
   <text x="99.541199" y="106.7361" font-family="Consolas" font-size="1.9403px" style="font-feature-settings:normal;font-variant-caps:normal;font-variant-ligatures:normal;font-variant-numeric:normal;line-height:94.99999881%" xml:space="preserve"><tspan x="99.541199" y="106.7361">fork</tspan></text>
   <text x="156.48331" y="115.67706" font-family="Calibri" font-size="1.9403px" style="font-feature-settings:normal;font-variant-caps:normal;font-variant-ligatures:normal;font-variant-numeric:normal;line-height:94.99999881%" xml:space="preserve"><tspan x="156.48331" y="115.67706"><tspan font-family="Consolas">wait</tspan>, <tspan font-family="Consolas">read</tspan>, <tspan font-family="Consolas">write</tspan>, ...</tspan></text>
  </g>
  <g fill="none" stroke="#000" stroke-width=".26458px">
   <path d="m155.83 104.66c.42585 1.9647.78237 4.0054.45512 6.0123-.22012 1.156-1.0811 2.0263-1.9526 2.7484-1.2735 1.0532-2.7228 1.8746-4.1999 2.6034-.8163.29068-1.6899.38807-2.5026.68872" marker-end="url(#marker9992)"/>
   <path d="m132.29 116.71c-1.8763-1.0964-3.7417-2.3066-5.1703-3.9677-.61561-.78176-1.0652-1.7544-.98125-2.7706.0457-1.786.47731-3.5354.58737-5.3146" marker-end="url(#marker10801)"/>
   <path d="m154.77 98.086c-4.0826-1.7125-8.2688-3.3032-12.651-4.0432-2.8184-.5403-5.6466.26624-8.3049 1.1486-2.418.82201-4.7814 1.8041-7.0901 2.8946" marker-end="url(#marker11075)"/>
  </g>
 </g>
</svg>
