<?xml version="1.0" encoding="UTF-8"?>
<!-- Created with Inkscape (http://www.inkscape.org/) -->
<svg width="100.67mm" height="39.192mm" version="1.1" viewBox="0 0 100.66544 39.191564" xmlns="http://www.w3.org/2000/svg" xmlns:cc="http://creativecommons.org/ns#" xmlns:dc="http://purl.org/dc/elements/1.1/" xmlns:rdf="http://www.w3.org/1999/02/22-rdf-syntax-ns#">
 <defs>
  <marker id="marker6352" overflow="visible" orient="auto">
   <path transform="scale(-.6)" d="m8.7186 4.0337-10.926-4.0177 10.926-4.0177c-1.7455 2.3721-1.7354 5.6175-6e-7 8.0354z" fill-rule="evenodd" stroke="#000" stroke-linejoin="round" stroke-width=".625"/>
  </marker>
  <marker id="marker5746" overflow="visible" orient="auto">
   <path transform="scale(-.6)" d="m8.7186 4.0337-10.926-4.0177 10.926-4.0177c-1.7455 2.3721-1.7354 5.6175-6e-7 8.0354z" fill-rule="evenodd" stroke="#000" stroke-linejoin="round" stroke-width=".625"/>
  </marker>
  <marker id="marker5092" overflow="visible" orient="auto">
   <path transform="scale(-.6)" d="m8.7186 4.0337-10.926-4.0177 10.926-4.0177c-1.7455 2.3721-1.7354 5.6175-6e-7 8.0354z" fill-rule="evenodd" stroke="#000" stroke-linejoin="round" stroke-width=".625"/>
  </marker>
  <marker id="marker4228" overflow="visible" orient="auto">
   <path transform="scale(-.6)" d="m8.7186 4.0337-10.926-4.0177 10.926-4.0177c-1.7455 2.3721-1.7354 5.6175-6e-7 8.0354z" fill-rule="evenodd" stroke="#000" stroke-linejoin="round" stroke-width=".625"/>
  </marker>
  <marker id="marker2406" overflow="visible" orient="auto">
   <path transform="scale(-.6)" d="m8.7186 4.0337-10.926-4.0177 10.926-4.0177c-1.7455 2.3721-1.7354 5.6175-6e-7 8.0354z" fill-rule="evenodd" stroke="#000" stroke-linejoin="round" stroke-width=".625"/>
  </marker>
  <marker id="marker2406-5" overflow="visible" orient="auto">
   <path transform="scale(-.6)" d="m8.7186 4.0337-10.926-4.0177 10.926-4.0177c-1.7455 2.3721-1.7354 5.6175-6e-7 8.0354z" fill-rule="evenodd" stroke="#000" stroke-linejoin="round" stroke-width=".625"/>
  </marker>
  <marker id="marker2406-5-3" overflow="visible" orient="auto">
   <path transform="scale(-.6)" d="m8.7186 4.0337-10.926-4.0177 10.926-4.0177c-1.7455 2.3721-1.7354 5.6175-6e-7 8.0354z" fill-rule="evenodd" stroke="#000" stroke-linejoin="round" stroke-width=".625"/>
  </marker>
 </defs>
 <metadata>
  <rdf:RDF>
   <cc:Work rdf:about="">
    <dc:format>image/svg+xml</dc:format>
    <dc:type rdf:resource="http://purl.org/dc/dcmitype/StillImage"/>
    <dc:title/>
   </cc:Work>
  </rdf:RDF>
 </metadata>
 <g transform="translate(54.929 -28.092)">
  <text x="-49.939976" y="30.33696" fill="#000000" font-family="Calibri" font-size="3.5278px" letter-spacing="0px" stroke-width="0" word-spacing="0px" style="font-feature-settings:normal;font-variant-caps:normal;font-variant-ligatures:normal;font-variant-numeric:normal;line-height:3.52777767px" xml:space="preserve"><tspan x="-49.939976" y="30.33696">P1</tspan></text>
  <rect transform="scale(1,-1)" x="-54.729" y="-67.084" width="13.19" height="34.954" rx="0" ry="0" fill="#8fbc8f" stroke="#556b2f" stroke-linecap="round" stroke-linejoin="round" stroke-width=".4">
   <desc>dfsdfsdfsdf</desc>
  </rect>
  <g>
   <path d="m-42.893 52.366 64.153-.000345" fill="none" marker-end="url(#marker4228)" stroke="#000" stroke-width=".26458px"/>
   <text x="-53.19656" y="36.401981" fill="#000000" font-family="Consolas" font-size="2.8222px" letter-spacing="0px" stroke-width="0" word-spacing="0px" style="font-feature-settings:normal;font-variant-caps:normal;font-variant-ligatures:normal;font-variant-numeric:normal;line-height:3.52777767px" xml:space="preserve"><tspan x="-53.19656" y="36.401981">i=0;</tspan><tspan x="-53.19656" y="39.92976">fork();</tspan><tspan x="-53.19656" y="43.457539">i=1;</tspan><tspan x="-53.19656" y="46.985313">fork();</tspan><tspan x="-53.19656" y="50.513092">i=2;</tspan><tspan x="-53.19656" y="54.040871">fork();</tspan><tspan x="-53.19656" y="57.568649">...</tspan><tspan x="-53.19656" y="61.096424">...</tspan></text>
   <path d="m-42.597 39.611 8.1053-.000345" fill="none" marker-end="url(#marker2406)" stroke="#000" stroke-width=".26458px"/>
   <path d="m-42.107 45.837 26.346-.000345" fill="none" marker-end="url(#marker2406-5)" stroke="#000" stroke-width=".26458px"/>
  </g>
  <rect transform="scale(1,-1)" x="-34.091" y="-67.084" width="13.19" height="26.249" rx="0" ry="0" fill="#8fbc8f" stroke="#556b2f" stroke-linecap="round" stroke-linejoin="round" stroke-width=".4">
   <desc>dfsdfsdfsdf</desc>
  </rect>
  <text x="-33.08823" y="40.106148" fill="#000000" font-family="Consolas" font-size="2.8222px" letter-spacing="0px" stroke-width="0" word-spacing="0px" style="font-feature-settings:normal;font-variant-caps:normal;font-variant-ligatures:normal;font-variant-numeric:normal;line-height:3.52777767px" xml:space="preserve"><tspan x="-33.08823" y="40.106148">fork();</tspan><tspan x="-33.08823" y="43.633926">i=1;</tspan><tspan x="-33.08823" y="47.161705">fork();</tspan><tspan x="-33.08823" y="50.68948">i=2;</tspan><tspan x="-33.08823" y="54.217258">fork();</tspan><tspan x="-33.08823" y="57.745037">...</tspan><tspan x="-33.08823" y="61.272816">...</tspan></text>
  <path d="m-22.256 52.895 50.955-.000345" fill="none" marker-end="url(#marker5092)" stroke="#000" stroke-width=".26458px"/>
  <rect transform="scale(1,-1)" x="-15.041" y="-67.084" width="13.19" height="19.05" rx="0" ry="0" fill="#8fbc8f" stroke="#556b2f" stroke-linecap="round" stroke-linejoin="round" stroke-width=".4">
   <desc>dfsdfsdfsdf</desc>
  </rect>
  <path d="m-3.2055 53.424 37.197-.000345" fill="none" marker-end="url(#marker5746)" stroke="#000" stroke-width=".26458px"/>
  <rect transform="scale(1,-1)" x="4.0087" y="-67.084" width="13.19" height="18.213" rx="0" ry="0" fill="#8fbc8f" stroke="#556b2f" stroke-linecap="round" stroke-linejoin="round" stroke-width=".4">
   <desc>dfsdfsdfsdf</desc>
  </rect>
  <g>
   <text x="5.0117722" y="48.043655" fill="#000000" font-family="Consolas" font-size="2.8222px" letter-spacing="0px" stroke-width="0" word-spacing="0px" style="font-feature-settings:normal;font-variant-caps:normal;font-variant-ligatures:normal;font-variant-numeric:normal;line-height:3.52777767px" xml:space="preserve"><tspan x="5.0117722" y="48.043655">fork();</tspan><tspan x="5.0117722" y="51.571434">i=2;</tspan><tspan x="5.0117722" y="55.099213">fork();</tspan><tspan x="5.0117722" y="58.626987">...</tspan><tspan x="5.0117722" y="62.154766">...</tspan></text>
   <path d="m-22.256 47.074 26.346-.000345" fill="none" marker-end="url(#marker2406-5-3)" stroke="#000" stroke-width=".26458px"/>
   <text x="-14.038224" y="46.985321" fill="#000000" font-family="Consolas" font-size="2.8222px" letter-spacing="0px" stroke-width="0" word-spacing="0px" style="font-feature-settings:normal;font-variant-caps:normal;font-variant-ligatures:normal;font-variant-numeric:normal;line-height:3.52777767px" xml:space="preserve"><tspan x="-14.038224" y="46.985321">fork();</tspan><tspan x="-14.038224" y="50.5131">i=2;</tspan><tspan x="-14.038224" y="54.040878">fork();</tspan><tspan x="-14.038224" y="57.568653">...</tspan><tspan x="-14.038224" y="61.096432">...</tspan></text>
   <path d="m15.844 53.953 23.968-.000345" fill="none" marker-end="url(#marker6352)" stroke="#000" stroke-width=".26458px"/>
  </g>
  <g fill="#8fbc8f" stroke="#556b2f" stroke-linecap="round" stroke-linejoin="round" stroke-width=".4">
   <rect transform="scale(1,-1)" x="21.471" y="-67.084" width="2.9785" height="14.276" rx="0" ry="0">
    <desc>dfsdfsdfsdf</desc>
   </rect>
   <rect transform="scale(1,-1)" x="28.35" y="-67.084" width="2.9785" height="14.005" rx="0" ry="0">
    <desc>dfsdfsdfsdf</desc>
   </rect>
   <rect transform="scale(1,-1)" x="34.171" y="-67.084" width="2.9785" height="13.373" rx="0" ry="0">
    <desc>dfsdfsdfsdf</desc>
   </rect>
   <rect transform="scale(1,-1)" x="40.521" y="-67.084" width="2.9785" height="12.521" rx="0" ry="0">
    <desc>dfsdfsdfsdf</desc>
   </rect>
  </g>
  <g fill="#000000" font-family="Calibri" letter-spacing="0px" stroke-width="0" word-spacing="0px">
   <g font-size="3.5278px">
    <text x="-30.353418" y="36.530998" style="font-feature-settings:normal;font-variant-caps:normal;font-variant-ligatures:normal;font-variant-numeric:normal;line-height:3.52777767px" xml:space="preserve"><tspan x="-30.353418" y="36.530998">P2</tspan></text>
    <text x="-11.101674" y="43.227257" style="font-feature-settings:normal;font-variant-caps:normal;font-variant-ligatures:normal;font-variant-numeric:normal;line-height:3.52777767px" xml:space="preserve"><tspan x="-11.101674" y="43.227257">P3</tspan></text>
    <text x="6.3608246" y="43.227257" style="font-feature-settings:normal;font-variant-caps:normal;font-variant-ligatures:normal;font-variant-numeric:normal;line-height:3.52777767px" xml:space="preserve"><tspan x="6.3608246" y="43.227257">P4</tspan></text>
    <text x="21.177488" y="47.989761" style="font-feature-settings:normal;font-variant-caps:normal;font-variant-ligatures:normal;font-variant-numeric:normal;line-height:3.52777767px" xml:space="preserve"><tspan x="21.177488" y="47.989761">P5</tspan></text>
    <text x="27.527494" y="48.005264" style="font-feature-settings:normal;font-variant-caps:normal;font-variant-ligatures:normal;font-variant-numeric:normal;line-height:3.52777767px" xml:space="preserve"><tspan x="27.527494" y="48.005264">P6</tspan></text>
    <text x="33.877499" y="48.000957" style="font-feature-settings:normal;font-variant-caps:normal;font-variant-ligatures:normal;font-variant-numeric:normal;line-height:3.52777767px" xml:space="preserve"><tspan x="33.877499" y="48.000957">P7</tspan></text>
    <text x="40.227505" y="48.006126" style="font-feature-settings:normal;font-variant-caps:normal;font-variant-ligatures:normal;font-variant-numeric:normal;line-height:3.52777767px" xml:space="preserve"><tspan x="40.227505" y="48.006126">P8</tspan></text>
   </g>
   <g font-size="2.1167px">
    <g>
     <text x="-32.470085" y="33.355995" style="font-feature-settings:normal;font-variant-caps:normal;font-variant-ligatures:normal;font-variant-numeric:normal;line-height:3.52777767px" xml:space="preserve"><tspan x="-32.470085" y="33.355995">parent: P1</tspan></text>
     <text x="-13.553154" y="39.712273" style="font-feature-settings:normal;font-variant-caps:normal;font-variant-ligatures:normal;font-variant-numeric:normal;line-height:3.52777767px" xml:space="preserve"><tspan x="-13.553154" y="39.712273">parent: P1</tspan></text>
     <text x="4.3862863" y="39.717442" style="font-feature-settings:normal;font-variant-caps:normal;font-variant-ligatures:normal;font-variant-numeric:normal;line-height:3.52777767px" xml:space="preserve"><tspan x="4.3862863" y="39.717442">parent: P2</tspan></text>
    </g>
    <g text-anchor="middle">
     <text x="22.654819" y="41.812881" text-align="center" style="font-feature-settings:normal;font-variant-caps:normal;font-variant-ligatures:normal;font-variant-numeric:normal;line-height:120.00000477%" xml:space="preserve"><tspan x="22.654819" y="41.812881">parent:</tspan><tspan x="22.654819" y="44.352882">P1</tspan></text>
     <text x="29.533993" y="41.812881" text-align="center" style="font-feature-settings:normal;font-variant-caps:normal;font-variant-ligatures:normal;font-variant-numeric:normal;line-height:120.00000477%" xml:space="preserve"><tspan x="29.533993" y="41.812881">parent:</tspan><tspan x="29.533993" y="44.352882">P2</tspan></text>
     <text x="35.883999" y="41.806164" text-align="center" style="font-feature-settings:normal;font-variant-caps:normal;font-variant-ligatures:normal;font-variant-numeric:normal;line-height:120.00000477%" xml:space="preserve"><tspan x="35.883999" y="41.806164">parent:</tspan><tspan x="35.883999" y="44.346165">P3</tspan></text>
     <text x="42.763172" y="41.812881" text-align="center" style="font-feature-settings:normal;font-variant-caps:normal;font-variant-ligatures:normal;font-variant-numeric:normal;line-height:120.00000477%" xml:space="preserve"><tspan x="42.763172" y="41.812881">parent:</tspan><tspan x="42.763172" y="44.352882">P4</tspan></text>
    </g>
   </g>
  </g>
 </g>
</svg>
